<svg width="40" height="41" viewBox="0 0 40 41" fill="none" xmlns="http://www.w3.org/2000/svg">
<path d="M28.1962 25.9515C31.6063 26.7299 38.0396 26.9404 38.5066 24.8943C38.9736 22.8482 33.086 20.2466 29.6759 19.4683C26.2658 18.6899 20.45 18.6203 19.983 20.6664C19.516 22.7125 24.7861 25.1732 28.1962 25.9515Z" fill="#A992BB"/>
<path d="M20.9717 30.3829C22.4894 33.5344 26.3359 38.6954 28.2268 37.7848C30.1176 36.8742 28.4808 30.649 26.9632 27.4976C25.4455 24.3462 21.8738 19.7558 19.983 20.6664C18.0921 21.577 19.4541 27.2315 20.9717 30.3829Z" fill="#A992BB"/>
<path d="M13.0027 27.4975C11.4851 30.649 9.8483 36.8741 11.7391 37.7847C13.63 38.6953 17.4765 33.5343 18.9942 30.3829C20.5118 27.2315 21.8738 21.5769 19.9829 20.6663C18.0921 19.7557 14.5204 24.3461 13.0027 27.4975Z" fill="#A992BB"/>
<path d="M10.29 19.4681C6.87987 20.2464 0.992313 22.8481 1.45931 24.8942C1.92631 26.9402 8.35963 26.7297 11.7697 25.9514C15.1798 25.173 20.4499 22.7123 19.9829 20.6663C19.5159 18.6202 13.7001 18.6898 10.29 19.4681Z" fill="#A992BB"/>
<path d="M14.8763 12.341C12.1416 10.1601 6.43667 7.17917 5.12817 8.81998C3.81966 10.4608 7.99536 15.3593 10.73 17.5402C13.4647 19.721 18.6745 22.3071 19.983 20.6663C21.2915 19.0255 17.6109 14.5218 14.8763 12.341Z" fill="#A992BB"/>
<path d="M23.3079 11.4829C23.3079 7.98513 22.0816 1.66626 19.9829 1.66626C17.8843 1.66626 16.6579 7.98513 16.6579 11.4829C16.6579 14.9807 17.8843 20.6663 19.9829 20.6663C22.0816 20.6663 23.3079 14.9807 23.3079 11.4829Z" fill="#A992BB"/>
<path d="M29.2358 17.5403C31.9705 15.3595 36.1462 10.4609 34.8377 8.82011C33.5292 7.1793 27.8243 10.1603 25.0896 12.3411C22.3549 14.522 18.6744 19.0256 19.9829 20.6664C21.2914 22.3072 26.5012 19.7211 29.2358 17.5403Z" fill="#A992BB"/>
<g style="mix-blend-mode:multiply">
<ellipse cx="20" cy="20.75" rx="4.0701" ry="4.0701" fill="#A992BB"/>
<g style="mix-blend-mode:multiply">
<path d="M23.2514 21.6095C22.664 21.6095 22.1879 20.75 22.1879 20.75C22.1879 20.75 22.664 19.8904 23.2514 19.8904C23.8388 19.8904 26.0167 20.75 26.0167 20.75C26.0167 20.75 23.8388 21.6095 23.2514 21.6095Z" fill="#A992BB"/>
</g>
<g style="mix-blend-mode:multiply">
<path d="M21.6913 23.6568C21.276 23.2415 21.5471 22.297 21.5471 22.297C21.5471 22.297 22.4915 22.0259 22.9069 22.4413C23.3222 22.8566 24.2544 25.0044 24.2544 25.0044C24.2544 25.0044 22.1067 24.0722 21.6913 23.6568Z" fill="#A992BB"/>
</g>
<g style="mix-blend-mode:multiply">
<path d="M19.1405 24.0014C19.1405 23.414 20 22.9379 20 22.9379C20 22.9379 20.8595 23.414 20.8595 24.0014C20.8595 24.5888 20 26.7667 20 26.7667C20 26.7667 19.1405 24.5888 19.1405 24.0014Z" fill="#A992BB"/>
</g>
<g style="mix-blend-mode:multiply">
<path d="M17.0931 22.4414C17.5085 22.026 18.4529 22.2971 18.4529 22.2971C18.4529 22.2971 18.724 23.2416 18.3087 23.6569C17.8933 24.0723 15.7456 25.0045 15.7456 25.0045C15.7456 25.0045 16.6778 22.8567 17.0931 22.4414Z" fill="#A992BB"/>
</g>
<g style="mix-blend-mode:multiply">
<path d="M16.7486 19.8905C17.336 19.8905 17.8121 20.75 17.8121 20.75C17.8121 20.75 17.336 21.6095 16.7486 21.6095C16.1612 21.6095 13.9833 20.75 13.9833 20.75C13.9833 20.75 16.1612 19.8905 16.7486 19.8905Z" fill="#A992BB"/>
</g>
<g style="mix-blend-mode:multiply">
<path d="M18.3087 17.8432C18.724 18.2585 18.4529 19.203 18.4529 19.203C18.4529 19.203 17.5085 19.4741 17.0931 19.0587C16.6778 18.6434 15.7456 16.4956 15.7456 16.4956C15.7456 16.4956 17.8933 17.4278 18.3087 17.8432Z" fill="#A992BB"/>
</g>
<g style="mix-blend-mode:multiply">
<path d="M20.8595 17.4986C20.8595 18.086 20 18.5622 20 18.5622C20 18.5622 19.1405 18.086 19.1405 17.4986C19.1405 16.9112 20 14.7334 20 14.7334C20 14.7334 20.8595 16.9112 20.8595 17.4986Z" fill="#A992BB"/>
</g>
<g style="mix-blend-mode:multiply">
<path d="M22.9069 19.0587C22.4915 19.474 21.5471 19.2029 21.5471 19.2029C21.5471 19.2029 21.276 18.2584 21.6913 17.8431C22.1067 17.4278 24.2544 16.4956 24.2544 16.4956C24.2544 16.4956 23.3222 18.6433 22.9069 19.0587Z" fill="#A992BB"/>
</g>
</g>
</svg>
